<?xml version="1.0" encoding="UTF-8"?><svg id="a" xmlns="http://www.w3.org/2000/svg" viewBox="0 0 200 141"><defs><style>.b{stroke:#f8981d;}.b,.c,.d{fill:none;stroke-linecap:round;stroke-linejoin:round;stroke-width:4px;}.c{stroke:#84277a;}.d{stroke:#44b6e5;}</style></defs><path class="d" d="M103.41,75.13s-12.37,4.62-20.06,14.04-13.43,24.74-13.43,24.74c0,0-5.74-15.32-13.43-24.74-7.69-9.42-20.06-14.04-20.06-14.04,0,0,12.37-4.62,20.06-14.04,7.69-9.42,13.43-24.74,13.43-24.74,0,0,5.74,15.32,13.43,24.74,7.69,9.42,20.06,14.04,20.06,14.04Z"/><path class="b" d="M151.13,110.14s-8.57,3.2-13.89,9.73c-5.33,6.52-9.3,17.14-9.3,17.14,0,0-3.98-10.61-9.3-17.14-5.33-6.52-13.89-9.73-13.89-9.73,0,0,8.57-3.2,13.89-9.73s9.3-17.14,9.3-17.14c0,0,3.98,10.61,9.3,17.14,5.33,6.52,13.89,9.73,13.89,9.73Z"/><path class="c" d="M138.47,28.11s-7.69,2.87-12.47,8.73c-4.78,5.86-8.35,15.38-8.35,15.38,0,0-3.57-9.53-8.35-15.38s-12.47-8.73-12.47-8.73c0,0,7.69-2.87,12.47-8.73s8.35-15.38,8.35-15.38c0,0,3.57,9.53,8.35,15.38s12.47,8.73,12.47,8.73Z"/></svg>