<?xml version="1.0" encoding="UTF-8"?><svg id="a" xmlns="http://www.w3.org/2000/svg" viewBox="0 0 200 141"><defs><style>.b{fill:#46b6e4;}.b,.c{stroke:#44b6e5;}.b,.c,.d,.e,.f{stroke-linecap:round;stroke-linejoin:round;}.c,.d,.e,.f{fill:none;}.c,.f{stroke-width:3px;}.d{stroke:#84277a;}.d,.e{stroke-width:4px;}.e{stroke:#e1457b;}.f{stroke:#f8981d;}</style></defs><circle class="f" cx="140.58" cy="35.57" r="7.38"/><circle class="f" cx="153.13" cy="83.39" r="5.4"/><circle class="f" cx="67.71" cy="26.55" r="5.4"/><g><polygon class="e" points="24.83 137.24 56.24 70.64 91.55 102.59 24.83 137.24"/><line class="e" x1="43.6" y1="97.45" x2="91.55" y2="102.59"/><line class="e" x1="34.76" y1="116.18" x2="60.21" y2="118.87"/></g><path class="d" d="M97.88,84.94c45.31,5.66,19.89-30.32,60.65-26.2"/><path class="d" d="M81.22,8.31c32.31,32.31-23.03,29.16-9.66,58.32"/><path class="c" d="M126.45,14.28s-3.21,1.2-5.2,3.64-3.48,6.41-3.48,6.41c0,0-1.49-3.97-3.48-6.41s-5.2-3.64-5.2-3.64c0,0,3.21-1.2,5.2-3.64s3.48-6.41,3.48-6.41c0,0,1.49,3.97,3.48,6.41s5.2,3.64,5.2,3.64Z"/><path class="c" d="M114.93,56.58s-3.21,1.2-5.2,3.64c-1.99,2.44-3.48,6.41-3.48,6.41,0,0-1.49-3.97-3.48-6.41s-5.2-3.64-5.2-3.64c0,0,3.21-1.2,5.2-3.64s3.48-6.41,3.48-6.41c0,0,1.49,3.97,3.48,6.41s5.2,3.64,5.2,3.64Z"/><path class="b" d="M119.06,102.59s-1.6,.6-2.6,1.82-1.74,3.21-1.74,3.21c0,0-.74-1.98-1.74-3.21s-2.6-1.82-2.6-1.82c0,0,1.6-.6,2.6-1.82s1.74-3.21,1.74-3.21c0,0,.74,1.98,1.74,3.21,1,1.22,2.6,1.82,2.6,1.82Z"/><path class="b" d="M175.17,55.55s-1.6,.6-2.6,1.82-1.74,3.21-1.74,3.21c0,0-.74-1.98-1.74-3.21s-2.6-1.82-2.6-1.82c0,0,1.6-.6,2.6-1.82s1.74-3.21,1.74-3.21c0,0,.74,1.98,1.74,3.21,1,1.22,2.6,1.82,2.6,1.82Z"/></svg>