<svg width="169" height="27" viewBox="0 0 169 27" fill="none" xmlns="http://www.w3.org/2000/svg">
<path fill-rule="evenodd" clip-rule="evenodd" d="M5.05697 6.47205L19.857 1.99872C22.6648 2.28425 23.4262 3.85468 22.1889 6.66241L14.2892 20.6535C12.5284 22.8425 10.72 23.6991 8.15023 21.7004L3.29619 10.8978C2.86789 8.70872 3.53413 7.32865 5.05697 6.47205ZM2.43959 5.66305L21.2371 0C24.8062 0.380709 25.8056 2.33184 24.1876 5.94858L14.194 23.7467C11.9573 26.5545 9.62547 27.649 6.38945 25.1268L0.155338 11.3261C-0.368137 8.51836 0.44087 6.75759 2.43959 5.66305Z" fill="#FFCD2C"/>
<path fill-rule="evenodd" clip-rule="evenodd" d="M10.3868 6.56749L19.3334 3.66459C23.4261 3.90253 13.3849 13.801 12.0048 12.4209C11.3386 11.2312 9.53018 7.04338 10.3868 6.56749ZM6.9604 6.66267L20.19 2.52246C22.1888 2.71282 22.7598 3.85494 21.8556 5.85366L13.6228 16.799C12.3855 18.3695 11.053 18.9881 9.19706 17.5605L5.6755 9.80352C5.38997 8.28068 5.81827 7.28132 6.9604 6.66267Z" fill="#FCEE2B"/>
<path d="M105.113 12.9558H100.683C100.757 12.2175 100.387 11.8483 99.5752 11.8483C99.1322 11.8483 98.8369 11.9221 98.5416 12.1436C98.2462 12.2913 98.0986 12.5866 98.0247 12.8081C97.9509 13.4726 98.6154 13.9894 100.092 14.4324C101.199 14.7277 102.012 15.023 102.455 15.2445C102.898 15.466 103.341 15.6875 103.636 16.0567C104.448 16.8688 104.743 17.9025 104.596 19.1576C104.374 20.708 103.488 21.9632 102.012 22.9968C100.683 23.8828 99.206 24.2519 97.5818 24.2519C95.8098 24.2519 94.407 23.7351 93.4472 22.6276C93.0042 22.1847 92.7089 21.6678 92.5612 21.2249C92.4136 20.708 92.3397 20.1174 92.4136 19.3052H96.8434C96.8434 20.1912 97.3603 20.6342 98.3201 20.6342C98.7631 20.6342 99.1322 20.5604 99.5014 20.2651C99.8705 20.0436 100.018 19.7482 100.092 19.4529C100.166 18.9361 99.8705 18.4931 99.1322 18.1978C98.9845 18.1239 97.9509 17.8286 96.1051 17.3118C95.4407 17.0903 94.85 16.7212 94.3332 16.2043C93.5949 15.3922 93.3734 14.3586 93.521 13.1773C93.7425 11.9221 94.3332 10.8885 95.4407 9.92869C96.1051 9.41187 96.8434 8.96888 97.7294 8.67356C98.6154 8.37823 99.4275 8.23057 100.314 8.23057C102.307 8.23057 103.71 8.89505 104.522 10.224C104.965 10.9623 105.186 11.8483 105.113 12.9558ZM93.0781 12.9558H88.6482C88.722 12.2175 88.3529 11.8483 87.5407 11.8483C87.0977 11.8483 86.8024 11.9221 86.5071 12.1436C86.2118 12.2913 86.0641 12.5866 85.9903 12.8081C85.9164 13.4726 86.5809 13.9894 88.0575 14.4324C89.165 14.7277 89.9772 15.023 90.4201 15.2445C90.8631 15.466 91.3061 15.6875 91.6014 16.0567C92.4136 16.8688 92.7089 17.9025 92.5612 19.1576C92.3397 20.708 91.4538 21.9632 89.9771 22.9968C88.6482 23.8828 87.1716 24.2519 85.5473 24.2519C83.7753 24.2519 82.3725 23.7351 81.4127 22.6276C80.9697 22.1847 80.6744 21.6678 80.5268 21.2249C80.3791 20.708 80.3053 20.1174 80.3791 19.3052H84.809C84.809 20.1912 85.3258 20.6342 86.2856 20.6342C86.7286 20.6342 87.0977 20.5604 87.4669 20.2651C87.836 20.0436 87.9837 19.7482 88.0575 19.4529C88.1314 18.9361 87.836 18.4931 87.0977 18.1978C86.9501 18.1239 85.9164 17.8286 84.0707 17.3118C83.4062 17.0903 82.8155 16.7212 82.2987 16.2043C81.5604 15.3922 81.3389 14.3586 81.4866 13.1773C81.7081 11.9221 82.2987 10.8885 83.4062 9.92869C84.0707 9.41187 84.809 8.96888 85.6949 8.67356C86.5809 8.37823 87.3931 8.23057 88.279 8.23057C90.2725 8.23057 91.6753 8.89505 92.4874 10.224C92.9304 10.9623 93.1519 11.8483 93.0781 12.9558ZM76.6137 14.5801C76.6137 13.8417 76.3184 13.1773 75.7277 12.7343C75.2109 12.2913 74.4726 11.996 73.5866 11.996C72.7007 11.996 71.9623 12.2175 71.2979 12.6604C70.6334 13.1034 70.1904 13.7679 69.8212 14.5801H76.6137ZM75.3586 19.0099H79.9361C79.3455 20.0436 78.681 20.8557 77.9427 21.594C76.0969 23.2921 74.1034 24.1781 71.8885 24.1781C70.1166 24.1781 68.6399 23.6613 67.3848 22.6276C66.3512 21.7417 65.6867 20.6342 65.3175 19.2314C65.096 18.2716 65.0222 17.3118 65.1699 16.2782C65.539 13.9156 66.6465 11.996 68.5661 10.3717C70.2642 8.96888 72.11 8.23057 74.1773 8.23057C76.6137 8.23057 78.4595 9.11655 79.7884 10.9623C80.8221 12.5128 81.1912 14.2847 80.8959 16.352C80.8221 16.7212 80.7483 17.1641 80.6006 17.5333H69.3783C69.3783 18.1239 69.4521 18.5669 69.6736 18.9361C70.1904 19.8959 71.0764 20.3389 72.2577 20.3389C73.1436 20.3389 73.882 20.1174 74.5464 19.6006C74.6203 19.6744 74.9156 19.4529 75.3586 19.0099ZM49.2962 23.6613L51.5849 8.74739H55.7933L55.5718 10.3717C56.1625 9.63336 56.827 9.11655 57.5653 8.74739C58.2297 8.45207 59.0419 8.23057 60.0017 8.23057C61.626 8.23057 62.9549 8.74739 63.8409 9.7072C64.2839 10.224 64.5792 10.8885 64.7269 11.553C64.8746 12.2175 64.8007 13.1773 64.6531 14.3586L63.2503 23.7351H58.7466L60.0017 15.5399C60.1494 14.5062 60.1494 13.7679 59.9279 13.3249C59.6325 12.7343 59.0419 12.4389 58.1559 12.4389C57.1961 12.4389 56.4578 12.8081 55.8672 13.4726C55.6457 13.6941 55.498 13.9156 55.4242 14.2109C55.3503 14.4324 55.2765 14.8015 55.2027 15.3922L53.7999 23.6613H49.2962ZM49.7392 3.72687L49.0009 8.74739H51.142L50.6251 12.1436H48.484L46.7121 23.7351H42.2084L43.9803 12.1436H41.7654L42.2822 8.74739H44.4972L45.2355 3.72687H49.7392ZM43.1682 3.72687L42.6514 7.12311H38.1477L38.6645 3.72687H43.1682ZM42.4299 8.74739L40.1411 23.7351H35.6374L37.9262 8.74739H42.4299ZM28.3281 23.6613L30.1001 12.0698H28.4758L28.9926 8.67356H30.6169L30.7646 7.86142C31.2814 4.68668 33.4225 3.21005 37.1879 3.28388H37.8523L37.3355 6.68012H36.8187C35.8589 6.75395 35.3421 7.19694 35.1944 8.08291L35.1206 8.67356H37.0402L36.5234 12.0698H34.6038L32.8318 23.6613H28.3281Z" fill="black"/>
<path d="M164.62 14.5801C164.62 13.8417 164.324 13.1773 163.734 12.7343C163.217 12.2913 162.479 11.996 161.593 11.996C160.707 11.996 159.968 12.2175 159.304 12.6604C158.639 13.1034 158.196 13.7679 157.827 14.5801H164.62ZM163.364 19.0099H167.942C167.351 20.0436 166.687 20.8557 165.949 21.594C164.103 23.2921 162.109 24.1781 159.894 24.1781C158.122 24.1781 156.646 23.6613 155.391 22.6276C154.357 21.7417 153.693 20.6342 153.323 19.2314C153.102 18.2716 153.028 17.3118 153.176 16.2782C153.545 13.9156 154.652 11.996 156.572 10.3717C158.27 8.96888 160.116 8.23057 162.183 8.23057C164.62 8.23057 166.465 9.11655 167.794 10.9623C168.828 12.5128 169.197 14.2847 168.902 16.352C168.828 16.7212 168.754 17.1641 168.607 17.5333H157.384C157.384 18.1239 157.458 18.5669 157.679 18.9361C158.196 19.8959 159.082 20.3389 160.264 20.3389C161.15 20.3389 161.888 20.1174 162.552 19.6006C162.626 19.6744 162.922 19.4529 163.364 19.0099ZM148.451 17.9763H152.954C152.364 19.4529 151.478 20.708 150.296 21.8155C148.524 23.4398 146.457 24.1781 144.168 24.1781C141.953 24.1781 140.108 23.4398 138.853 21.8893C137.524 20.3389 137.081 18.4193 137.376 16.2043C137.745 13.7679 138.926 11.7745 140.994 10.1502C142.618 8.89505 144.464 8.23057 146.457 8.23057C148.451 8.23057 150.075 8.82122 151.33 10.0025C152.585 11.1838 153.323 12.6604 153.397 14.5801H148.894C148.746 13.9156 148.377 13.3988 147.86 13.0296C147.343 12.6604 146.679 12.5128 145.94 12.5128C144.907 12.5128 144.021 12.8819 143.282 13.5464C142.47 14.2847 142.027 15.2445 141.806 16.352C141.658 17.4595 141.88 18.4193 142.47 19.0838C143.061 19.7482 143.799 20.0436 144.833 20.0436C146.162 19.9697 147.343 19.3052 148.451 17.9763ZM128.59 23.6613L130.879 8.67356H135.087L134.866 10.2978C135.825 8.89505 137.154 8.15674 138.926 8.23057L138.262 12.7343C137.007 12.7343 136.047 12.9558 135.456 13.3988C134.866 13.8417 134.497 14.5062 134.349 15.466L133.094 23.7351H128.59V23.6613ZM121.207 12.4389C120.026 12.4389 118.992 12.8819 118.18 13.8417C117.589 14.5062 117.22 15.2445 117.072 16.1305C116.925 17.3118 117.146 18.2716 117.737 18.9361C118.327 19.6006 119.066 19.9697 120.099 19.9697C121.207 19.9697 122.167 19.5267 122.979 18.7146C123.717 17.9763 124.086 17.1641 124.234 16.2043C124.382 15.1707 124.16 14.2847 123.643 13.5464C123.053 12.8081 122.241 12.4389 121.207 12.4389ZM121.871 8.23057C124.529 8.23057 126.449 9.19038 127.704 11.0362C128.664 12.5128 129.033 14.2847 128.738 16.2043C128.369 18.4931 127.335 20.4127 125.563 21.9632C123.865 23.4398 121.798 24.1781 119.435 24.1781C117.811 24.1781 116.334 23.7351 115.153 22.923C114.119 22.1847 113.381 21.2249 112.938 20.0436C112.495 18.8623 112.421 17.6071 112.642 16.1305C112.864 14.8015 113.381 13.5464 114.193 12.2913C115.965 9.63336 118.549 8.3044 121.871 8.23057ZM105.186 23.6613L106.957 12.0698H105.333L105.85 8.67356H107.474L107.622 7.86142C108.139 4.68668 110.28 3.21005 114.045 3.28388H114.71L114.193 6.68012H113.602C112.642 6.75395 112.126 7.19694 111.978 8.08291L111.904 8.67356H113.824L113.307 12.0698H111.387L109.615 23.6613H105.186Z" fill="#FFCD2C"/>
</svg>
